<?xml version="1.0" encoding="UTF-8" standalone="no"?>
<svg width="104px" height="85px" viewBox="0 0 104 85" version="1.1" xmlns="http://www.w3.org/2000/svg" xmlns:xlink="http://www.w3.org/1999/xlink" xmlns:sketch="http://www.bohemiancoding.com/sketch/ns">
    <!-- Generator: Sketch 3.4.2 (15855) - http://www.bohemiancoding.com/sketch -->
    <title>CarRank_icon</title>
    <desc>Created with Sketch.</desc>
    <defs></defs>
    <g id="Page-1" stroke="none" stroke-width="1" fill="none" fill-rule="evenodd" sketch:type="MSPage">
        <g id="iPhone-6-Plus" sketch:type="MSArtboardGroup" transform="translate(-155.000000, -154.000000)">
            <g id="CarRank_icon" sketch:type="MSLayerGroup" transform="translate(158.000000, 155.000000)">
                <g id="Car" transform="translate(0.000000, 29.423529)" stroke="#F2F2F2" stroke-width="4.48" sketch:type="MSShapeGroup">
                    <path d="M3.78473949,45.3669443 C2.9247501,45.3669443 0,43.7847199 0,42.8224078 L0,23.5250389 C0,22.5186442 2.5231597,20.5058549 3.78473956,20.5058549 L29.187965,20.5058549 C29.187965,20.5058549 40.6435781,1.03809151 45.6249112,1.03809151 L87.8036263,1.03809151 C90.7806412,1.03809151 98,20.5058549 98,20.5058549 L98,45.7093441" id="Rectangle-10" stroke-linecap="round" stroke-linejoin="round"></path>
                    <ellipse id="Oval-5" cx="26.7272727" cy="44.0066667" rx="6.36363636" ry="6.47156863"></ellipse>
                    <ellipse id="Oval-5-Copy" cx="77.6363636" cy="45.3009804" rx="6.36363636" ry="6.47156863"></ellipse>
                    <path d="M59.1818182,21.3843137 L97.3636364,21.3843137" id="Line" stroke-linecap="round" stroke-linejoin="round"></path>
                    <path d="M3.81818182,46.145098 L20.3636364,46.145098" id="Line-Copy" stroke-linecap="round" stroke-linejoin="round"></path>
                </g>
                <path d="M5.82298819,38.6287989 L5.82298819,20.424647 C5.82298819,19.7399609 6.83280219,18.3933981 9.80869093,18.3933981 L32.8272013,18.3933981 L32.8272013,4.8919531 C32.8272013,2.30564346 34.9052648,0.209025238 37.4603714,0.209025238 L63.084389,0.209025238 C65.6432182,0.209025238 67.7175592,2.29297307 67.7175593,4.86949887 L67.7175596,11.4282013 L91.4900014,11.4282013 C94.6287439,11.4282013 94.8130081,14.5973796 94.8130081,15.4235235 L94.8130081,30.8632701" id="Rank" stroke="#979797" stroke-width="2.24" stroke-linecap="round" stroke-linejoin="round" sketch:type="MSShapeGroup"></path>
                <path d="M13.91299,25.5716642 L13.91299,31.4117455 C13.91299,32.0568231 14.430421,32.5797618 15.0687045,32.5797618 C15.7069881,32.5797618 16.2244191,32.0568231 16.2244191,31.4117455 L16.2244191,25.5716642 C16.2244191,24.9265866 15.7069881,24.4036479 15.0687045,24.4036479 C14.430421,24.4036479 13.91299,24.9265866 13.91299,25.5716642 Z M19.6915627,25.5716642 L19.6915627,31.4117455 C19.6915627,32.0568231 20.2089938,32.5797618 20.8472773,32.5797618 C21.4855608,32.5797618 22.0029918,32.0568231 22.0029918,31.4117455 L22.0029918,25.5716642 C22.0029918,24.9265866 21.4855608,24.4036479 20.8472773,24.4036479 C20.2089938,24.4036479 19.6915627,24.9265866 19.6915627,25.5716642 Z M25.4701354,25.5716642 L25.4701354,31.4117455 C25.4701354,32.0568231 25.9875665,32.5797618 26.62585,32.5797618 C27.2641335,32.5797618 27.7815645,32.0568231 27.7815645,31.4117455 L27.7815645,25.5716642 C27.7815645,24.9265866 27.2641335,24.4036479 26.62585,24.4036479 C25.9875665,24.4036479 25.4701354,24.9265866 25.4701354,25.5716642 Z" id="3" fill="#D8D8D8" sketch:type="MSShapeGroup"></path>
                <path d="M75.1658609,17.0618314 L75.1658609,22.9019127 C75.1658609,23.5469903 75.6832919,24.069929 76.3215754,24.069929 C76.9598589,24.069929 77.47729,23.5469903 77.47729,22.9019127 L77.47729,17.0618314 C77.47729,16.4167538 76.9598589,15.8938151 76.3215754,15.8938151 C75.6832919,15.8938151 75.1658609,16.4167538 75.1658609,17.0618314 Z M80.9444336,17.0618314 L80.9444336,22.9019127 C80.9444336,23.5469903 81.4618646,24.069929 82.1001481,24.069929 C82.7384317,24.069929 83.2558627,23.5469903 83.2558627,22.9019127 L83.2558627,17.0618314 C83.2558627,16.4167538 82.7384317,15.8938151 82.1001481,15.8938151 C81.4618646,15.8938151 80.9444336,16.4167538 80.9444336,17.0618314 Z" id="2" fill="#D8D8D8" sketch:type="MSShapeGroup"></path>
                <path d="M48.9203252,8.05142018 L48.9203252,13.8915015" id="1" stroke="#D8D8D8" stroke-width="2.24" stroke-linecap="round" stroke-linejoin="round" sketch:type="MSShapeGroup"></path>
            </g>
        </g>
    </g>
</svg>